%TF.GenerationSoftware,KiCad,Pcbnew,8.0.3*%
%TF.CreationDate,2024-06-20T11:34:12+01:00*%
%TF.ProjectId,FM16W08-3458A-AdaptorV1.0,464d3136-5730-4382-9d33-343538412d41,rev?*%
%TF.SameCoordinates,Original*%
%TF.FileFunction,Soldermask,Top*%
%TF.FilePolarity,Negative*%
%FSLAX46Y46*%
G04 Gerber Fmt 4.6, Leading zero omitted, Abs format (unit mm)*
G04 Created by KiCad (PCBNEW 8.0.3) date 2024-06-20 11:34:12*
%MOMM*%
%LPD*%
G01*
G04 APERTURE LIST*
G04 Aperture macros list*
%AMRoundRect*
0 Rectangle with rounded corners*
0 $1 Rounding radius*
0 $2 $3 $4 $5 $6 $7 $8 $9 X,Y pos of 4 corners*
0 Add a 4 corners polygon primitive as box body*
4,1,4,$2,$3,$4,$5,$6,$7,$8,$9,$2,$3,0*
0 Add four circle primitives for the rounded corners*
1,1,$1+$1,$2,$3*
1,1,$1+$1,$4,$5*
1,1,$1+$1,$6,$7*
1,1,$1+$1,$8,$9*
0 Add four rect primitives between the rounded corners*
20,1,$1+$1,$2,$3,$4,$5,0*
20,1,$1+$1,$4,$5,$6,$7,0*
20,1,$1+$1,$6,$7,$8,$9,0*
20,1,$1+$1,$8,$9,$2,$3,0*%
G04 Aperture macros list end*
%ADD10R,1.600000X1.600000*%
%ADD11O,1.600000X1.600000*%
%ADD12RoundRect,0.150000X-0.875000X-0.150000X0.875000X-0.150000X0.875000X0.150000X-0.875000X0.150000X0*%
G04 APERTURE END LIST*
D10*
%TO.C,SOCKET1*%
X140716000Y-82296000D03*
D11*
X140716000Y-84836000D03*
X140716000Y-87376000D03*
X140716000Y-89916000D03*
X140716000Y-92456000D03*
X140716000Y-94996000D03*
X140716000Y-97536000D03*
X140716000Y-100076000D03*
X140716000Y-102616000D03*
X140716000Y-105156000D03*
X140716000Y-107696000D03*
X140716000Y-110236000D03*
X155956000Y-110236000D03*
X155956000Y-107696000D03*
X155956000Y-105156000D03*
X155956000Y-102616000D03*
X155956000Y-100076000D03*
X155956000Y-97536000D03*
X155956000Y-94996000D03*
X155956000Y-92456000D03*
X155956000Y-89916000D03*
X155956000Y-87376000D03*
X155956000Y-84836000D03*
X155956000Y-82296000D03*
%TD*%
D12*
%TO.C,U1*%
X143686000Y-86614000D03*
X143686000Y-87884000D03*
X143686000Y-89154000D03*
X143686000Y-90424000D03*
X143686000Y-91694000D03*
X143686000Y-92964000D03*
X143686000Y-94234000D03*
X143686000Y-95504000D03*
X143686000Y-96774000D03*
X143686000Y-98044000D03*
X143686000Y-99314000D03*
X143686000Y-100584000D03*
X143686000Y-101854000D03*
X143686000Y-103124000D03*
X152986000Y-103124000D03*
X152986000Y-101854000D03*
X152986000Y-100584000D03*
X152986000Y-99314000D03*
X152986000Y-98044000D03*
X152986000Y-96774000D03*
X152986000Y-95504000D03*
X152986000Y-94234000D03*
X152986000Y-92964000D03*
X152986000Y-91694000D03*
X152986000Y-90424000D03*
X152986000Y-89154000D03*
X152986000Y-87884000D03*
X152986000Y-86614000D03*
%TD*%
M02*
