M48
INCH,TZ
T1C0.0157
T2C0.0315
%
G90
G05
T1
X56550Y-33250
X58000Y-33250
X58500Y-34400
X59400Y-40850
X59800Y-33600
T2
X55400Y-32400
X55400Y-33400
X55400Y-34400
X55400Y-35400
X55400Y-36400
X55400Y-37400
X55400Y-38400
X55400Y-39400
X55400Y-40400
X55400Y-41400
X55400Y-42400
X55400Y-43400
X61400Y-32400
X61400Y-33400
X61400Y-34400
X61400Y-35400
X61400Y-36400
X61400Y-37400
X61400Y-38400
X61400Y-39400
X61400Y-40400
X61400Y-41400
X61400Y-42400
X61400Y-43400
M30
