%TF.GenerationSoftware,KiCad,Pcbnew,8.0.2*%
%TF.CreationDate,2024-05-26T11:04:38+01:00*%
%TF.ProjectId,FM1608-3458A-AdaptorV1.0,464d3136-3038-42d3-9334-3538412d4164,rev?*%
%TF.SameCoordinates,Original*%
%TF.FileFunction,Legend,Top*%
%TF.FilePolarity,Positive*%
%FSLAX46Y46*%
G04 Gerber Fmt 4.6, Leading zero omitted, Abs format (unit mm)*
G04 Created by KiCad (PCBNEW 8.0.2) date 2024-05-26 11:04:38*
%MOMM*%
%LPD*%
G01*
G04 APERTURE LIST*
%ADD10C,0.150000*%
%ADD11C,0.203200*%
%ADD12C,0.120000*%
%ADD13C,0.200000*%
G04 APERTURE END LIST*
D10*
X146935819Y-102035809D02*
X145935819Y-102035809D01*
X146935819Y-101131048D02*
X146412009Y-101131048D01*
X146412009Y-101131048D02*
X146316771Y-101178667D01*
X146316771Y-101178667D02*
X146269152Y-101273905D01*
X146269152Y-101273905D02*
X146269152Y-101464381D01*
X146269152Y-101464381D02*
X146316771Y-101559619D01*
X146888200Y-101131048D02*
X146935819Y-101226286D01*
X146935819Y-101226286D02*
X146935819Y-101464381D01*
X146935819Y-101464381D02*
X146888200Y-101559619D01*
X146888200Y-101559619D02*
X146792961Y-101607238D01*
X146792961Y-101607238D02*
X146697723Y-101607238D01*
X146697723Y-101607238D02*
X146602485Y-101559619D01*
X146602485Y-101559619D02*
X146554866Y-101464381D01*
X146554866Y-101464381D02*
X146554866Y-101226286D01*
X146554866Y-101226286D02*
X146507247Y-101131048D01*
X146269152Y-100654857D02*
X146935819Y-100654857D01*
X146364390Y-100654857D02*
X146316771Y-100607238D01*
X146316771Y-100607238D02*
X146269152Y-100512000D01*
X146269152Y-100512000D02*
X146269152Y-100369143D01*
X146269152Y-100369143D02*
X146316771Y-100273905D01*
X146316771Y-100273905D02*
X146412009Y-100226286D01*
X146412009Y-100226286D02*
X146935819Y-100226286D01*
X145935819Y-99464381D02*
X146650104Y-99464381D01*
X146650104Y-99464381D02*
X146792961Y-99512000D01*
X146792961Y-99512000D02*
X146888200Y-99607238D01*
X146888200Y-99607238D02*
X146935819Y-99750095D01*
X146935819Y-99750095D02*
X146935819Y-99845333D01*
X146935819Y-98845333D02*
X146888200Y-98940571D01*
X146888200Y-98940571D02*
X146840580Y-98988190D01*
X146840580Y-98988190D02*
X146745342Y-99035809D01*
X146745342Y-99035809D02*
X146459628Y-99035809D01*
X146459628Y-99035809D02*
X146364390Y-98988190D01*
X146364390Y-98988190D02*
X146316771Y-98940571D01*
X146316771Y-98940571D02*
X146269152Y-98845333D01*
X146269152Y-98845333D02*
X146269152Y-98702476D01*
X146269152Y-98702476D02*
X146316771Y-98607238D01*
X146316771Y-98607238D02*
X146364390Y-98559619D01*
X146364390Y-98559619D02*
X146459628Y-98512000D01*
X146459628Y-98512000D02*
X146745342Y-98512000D01*
X146745342Y-98512000D02*
X146840580Y-98559619D01*
X146840580Y-98559619D02*
X146888200Y-98607238D01*
X146888200Y-98607238D02*
X146935819Y-98702476D01*
X146935819Y-98702476D02*
X146935819Y-98845333D01*
X146935819Y-98083428D02*
X145935819Y-98083428D01*
X146935819Y-97654857D02*
X146412009Y-97654857D01*
X146412009Y-97654857D02*
X146316771Y-97702476D01*
X146316771Y-97702476D02*
X146269152Y-97797714D01*
X146269152Y-97797714D02*
X146269152Y-97940571D01*
X146269152Y-97940571D02*
X146316771Y-98035809D01*
X146316771Y-98035809D02*
X146364390Y-98083428D01*
X146269152Y-97178666D02*
X146935819Y-97178666D01*
X146364390Y-97178666D02*
X146316771Y-97131047D01*
X146316771Y-97131047D02*
X146269152Y-97035809D01*
X146269152Y-97035809D02*
X146269152Y-96892952D01*
X146269152Y-96892952D02*
X146316771Y-96797714D01*
X146316771Y-96797714D02*
X146412009Y-96750095D01*
X146412009Y-96750095D02*
X146935819Y-96750095D01*
X146888200Y-96321523D02*
X146935819Y-96226285D01*
X146935819Y-96226285D02*
X146935819Y-96035809D01*
X146935819Y-96035809D02*
X146888200Y-95940571D01*
X146888200Y-95940571D02*
X146792961Y-95892952D01*
X146792961Y-95892952D02*
X146745342Y-95892952D01*
X146745342Y-95892952D02*
X146650104Y-95940571D01*
X146650104Y-95940571D02*
X146602485Y-96035809D01*
X146602485Y-96035809D02*
X146602485Y-96178666D01*
X146602485Y-96178666D02*
X146554866Y-96273904D01*
X146554866Y-96273904D02*
X146459628Y-96321523D01*
X146459628Y-96321523D02*
X146412009Y-96321523D01*
X146412009Y-96321523D02*
X146316771Y-96273904D01*
X146316771Y-96273904D02*
X146269152Y-96178666D01*
X146269152Y-96178666D02*
X146269152Y-96035809D01*
X146269152Y-96035809D02*
X146316771Y-95940571D01*
X146269152Y-95607237D02*
X146269152Y-95226285D01*
X145935819Y-95464380D02*
X146792961Y-95464380D01*
X146792961Y-95464380D02*
X146888200Y-95416761D01*
X146888200Y-95416761D02*
X146935819Y-95321523D01*
X146935819Y-95321523D02*
X146935819Y-95226285D01*
X146935819Y-94750094D02*
X146888200Y-94845332D01*
X146888200Y-94845332D02*
X146840580Y-94892951D01*
X146840580Y-94892951D02*
X146745342Y-94940570D01*
X146745342Y-94940570D02*
X146459628Y-94940570D01*
X146459628Y-94940570D02*
X146364390Y-94892951D01*
X146364390Y-94892951D02*
X146316771Y-94845332D01*
X146316771Y-94845332D02*
X146269152Y-94750094D01*
X146269152Y-94750094D02*
X146269152Y-94607237D01*
X146269152Y-94607237D02*
X146316771Y-94511999D01*
X146316771Y-94511999D02*
X146364390Y-94464380D01*
X146364390Y-94464380D02*
X146459628Y-94416761D01*
X146459628Y-94416761D02*
X146745342Y-94416761D01*
X146745342Y-94416761D02*
X146840580Y-94464380D01*
X146840580Y-94464380D02*
X146888200Y-94511999D01*
X146888200Y-94511999D02*
X146935819Y-94607237D01*
X146935819Y-94607237D02*
X146935819Y-94750094D01*
X146269152Y-93988189D02*
X146935819Y-93988189D01*
X146364390Y-93988189D02*
X146316771Y-93940570D01*
X146316771Y-93940570D02*
X146269152Y-93845332D01*
X146269152Y-93845332D02*
X146269152Y-93702475D01*
X146269152Y-93702475D02*
X146316771Y-93607237D01*
X146316771Y-93607237D02*
X146412009Y-93559618D01*
X146412009Y-93559618D02*
X146935819Y-93559618D01*
X146840580Y-93083427D02*
X146888200Y-93035808D01*
X146888200Y-93035808D02*
X146935819Y-93083427D01*
X146935819Y-93083427D02*
X146888200Y-93131046D01*
X146888200Y-93131046D02*
X146840580Y-93083427D01*
X146840580Y-93083427D02*
X146935819Y-93083427D01*
X146888200Y-92178666D02*
X146935819Y-92273904D01*
X146935819Y-92273904D02*
X146935819Y-92464380D01*
X146935819Y-92464380D02*
X146888200Y-92559618D01*
X146888200Y-92559618D02*
X146840580Y-92607237D01*
X146840580Y-92607237D02*
X146745342Y-92654856D01*
X146745342Y-92654856D02*
X146459628Y-92654856D01*
X146459628Y-92654856D02*
X146364390Y-92607237D01*
X146364390Y-92607237D02*
X146316771Y-92559618D01*
X146316771Y-92559618D02*
X146269152Y-92464380D01*
X146269152Y-92464380D02*
X146269152Y-92273904D01*
X146269152Y-92273904D02*
X146316771Y-92178666D01*
X146935819Y-91607237D02*
X146888200Y-91702475D01*
X146888200Y-91702475D02*
X146840580Y-91750094D01*
X146840580Y-91750094D02*
X146745342Y-91797713D01*
X146745342Y-91797713D02*
X146459628Y-91797713D01*
X146459628Y-91797713D02*
X146364390Y-91750094D01*
X146364390Y-91750094D02*
X146316771Y-91702475D01*
X146316771Y-91702475D02*
X146269152Y-91607237D01*
X146269152Y-91607237D02*
X146269152Y-91464380D01*
X146269152Y-91464380D02*
X146316771Y-91369142D01*
X146316771Y-91369142D02*
X146364390Y-91321523D01*
X146364390Y-91321523D02*
X146459628Y-91273904D01*
X146459628Y-91273904D02*
X146745342Y-91273904D01*
X146745342Y-91273904D02*
X146840580Y-91321523D01*
X146840580Y-91321523D02*
X146888200Y-91369142D01*
X146888200Y-91369142D02*
X146935819Y-91464380D01*
X146935819Y-91464380D02*
X146935819Y-91607237D01*
X146935819Y-90845332D02*
X146269152Y-90845332D01*
X146364390Y-90845332D02*
X146316771Y-90797713D01*
X146316771Y-90797713D02*
X146269152Y-90702475D01*
X146269152Y-90702475D02*
X146269152Y-90559618D01*
X146269152Y-90559618D02*
X146316771Y-90464380D01*
X146316771Y-90464380D02*
X146412009Y-90416761D01*
X146412009Y-90416761D02*
X146935819Y-90416761D01*
X146412009Y-90416761D02*
X146316771Y-90369142D01*
X146316771Y-90369142D02*
X146269152Y-90273904D01*
X146269152Y-90273904D02*
X146269152Y-90131047D01*
X146269152Y-90131047D02*
X146316771Y-90035808D01*
X146316771Y-90035808D02*
X146412009Y-89988189D01*
X146412009Y-89988189D02*
X146935819Y-89988189D01*
D11*
X142691075Y-83336826D02*
X142691075Y-82465969D01*
X142691075Y-82901398D02*
X144215075Y-82901398D01*
X144215075Y-82901398D02*
X143997361Y-82756255D01*
X143997361Y-82756255D02*
X143852218Y-82611112D01*
X143852218Y-82611112D02*
X143779647Y-82465969D01*
D10*
X143110009Y-98345333D02*
X143110009Y-98678666D01*
X143633819Y-98678666D02*
X142633819Y-98678666D01*
X142633819Y-98678666D02*
X142633819Y-98202476D01*
X143633819Y-97821523D02*
X142633819Y-97821523D01*
X142633819Y-97821523D02*
X143348104Y-97488190D01*
X143348104Y-97488190D02*
X142633819Y-97154857D01*
X142633819Y-97154857D02*
X143633819Y-97154857D01*
X143633819Y-96154857D02*
X143633819Y-96726285D01*
X143633819Y-96440571D02*
X142633819Y-96440571D01*
X142633819Y-96440571D02*
X142776676Y-96535809D01*
X142776676Y-96535809D02*
X142871914Y-96631047D01*
X142871914Y-96631047D02*
X142919533Y-96726285D01*
X142633819Y-95297714D02*
X142633819Y-95488190D01*
X142633819Y-95488190D02*
X142681438Y-95583428D01*
X142681438Y-95583428D02*
X142729057Y-95631047D01*
X142729057Y-95631047D02*
X142871914Y-95726285D01*
X142871914Y-95726285D02*
X143062390Y-95773904D01*
X143062390Y-95773904D02*
X143443342Y-95773904D01*
X143443342Y-95773904D02*
X143538580Y-95726285D01*
X143538580Y-95726285D02*
X143586200Y-95678666D01*
X143586200Y-95678666D02*
X143633819Y-95583428D01*
X143633819Y-95583428D02*
X143633819Y-95392952D01*
X143633819Y-95392952D02*
X143586200Y-95297714D01*
X143586200Y-95297714D02*
X143538580Y-95250095D01*
X143538580Y-95250095D02*
X143443342Y-95202476D01*
X143443342Y-95202476D02*
X143205247Y-95202476D01*
X143205247Y-95202476D02*
X143110009Y-95250095D01*
X143110009Y-95250095D02*
X143062390Y-95297714D01*
X143062390Y-95297714D02*
X143014771Y-95392952D01*
X143014771Y-95392952D02*
X143014771Y-95583428D01*
X143014771Y-95583428D02*
X143062390Y-95678666D01*
X143062390Y-95678666D02*
X143110009Y-95726285D01*
X143110009Y-95726285D02*
X143205247Y-95773904D01*
X142633819Y-94583428D02*
X142633819Y-94488190D01*
X142633819Y-94488190D02*
X142681438Y-94392952D01*
X142681438Y-94392952D02*
X142729057Y-94345333D01*
X142729057Y-94345333D02*
X142824295Y-94297714D01*
X142824295Y-94297714D02*
X143014771Y-94250095D01*
X143014771Y-94250095D02*
X143252866Y-94250095D01*
X143252866Y-94250095D02*
X143443342Y-94297714D01*
X143443342Y-94297714D02*
X143538580Y-94345333D01*
X143538580Y-94345333D02*
X143586200Y-94392952D01*
X143586200Y-94392952D02*
X143633819Y-94488190D01*
X143633819Y-94488190D02*
X143633819Y-94583428D01*
X143633819Y-94583428D02*
X143586200Y-94678666D01*
X143586200Y-94678666D02*
X143538580Y-94726285D01*
X143538580Y-94726285D02*
X143443342Y-94773904D01*
X143443342Y-94773904D02*
X143252866Y-94821523D01*
X143252866Y-94821523D02*
X143014771Y-94821523D01*
X143014771Y-94821523D02*
X142824295Y-94773904D01*
X142824295Y-94773904D02*
X142729057Y-94726285D01*
X142729057Y-94726285D02*
X142681438Y-94678666D01*
X142681438Y-94678666D02*
X142633819Y-94583428D01*
X143062390Y-93678666D02*
X143014771Y-93773904D01*
X143014771Y-93773904D02*
X142967152Y-93821523D01*
X142967152Y-93821523D02*
X142871914Y-93869142D01*
X142871914Y-93869142D02*
X142824295Y-93869142D01*
X142824295Y-93869142D02*
X142729057Y-93821523D01*
X142729057Y-93821523D02*
X142681438Y-93773904D01*
X142681438Y-93773904D02*
X142633819Y-93678666D01*
X142633819Y-93678666D02*
X142633819Y-93488190D01*
X142633819Y-93488190D02*
X142681438Y-93392952D01*
X142681438Y-93392952D02*
X142729057Y-93345333D01*
X142729057Y-93345333D02*
X142824295Y-93297714D01*
X142824295Y-93297714D02*
X142871914Y-93297714D01*
X142871914Y-93297714D02*
X142967152Y-93345333D01*
X142967152Y-93345333D02*
X143014771Y-93392952D01*
X143014771Y-93392952D02*
X143062390Y-93488190D01*
X143062390Y-93488190D02*
X143062390Y-93678666D01*
X143062390Y-93678666D02*
X143110009Y-93773904D01*
X143110009Y-93773904D02*
X143157628Y-93821523D01*
X143157628Y-93821523D02*
X143252866Y-93869142D01*
X143252866Y-93869142D02*
X143443342Y-93869142D01*
X143443342Y-93869142D02*
X143538580Y-93821523D01*
X143538580Y-93821523D02*
X143586200Y-93773904D01*
X143586200Y-93773904D02*
X143633819Y-93678666D01*
X143633819Y-93678666D02*
X143633819Y-93488190D01*
X143633819Y-93488190D02*
X143586200Y-93392952D01*
X143586200Y-93392952D02*
X143538580Y-93345333D01*
X143538580Y-93345333D02*
X143443342Y-93297714D01*
X143443342Y-93297714D02*
X143252866Y-93297714D01*
X143252866Y-93297714D02*
X143157628Y-93345333D01*
X143157628Y-93345333D02*
X143110009Y-93392952D01*
X143110009Y-93392952D02*
X143062390Y-93488190D01*
X144888009Y-97369142D02*
X144888009Y-97702475D01*
X145411819Y-97702475D02*
X144411819Y-97702475D01*
X144411819Y-97702475D02*
X144411819Y-97226285D01*
X145411819Y-96273904D02*
X144935628Y-96607237D01*
X145411819Y-96845332D02*
X144411819Y-96845332D01*
X144411819Y-96845332D02*
X144411819Y-96464380D01*
X144411819Y-96464380D02*
X144459438Y-96369142D01*
X144459438Y-96369142D02*
X144507057Y-96321523D01*
X144507057Y-96321523D02*
X144602295Y-96273904D01*
X144602295Y-96273904D02*
X144745152Y-96273904D01*
X144745152Y-96273904D02*
X144840390Y-96321523D01*
X144840390Y-96321523D02*
X144888009Y-96369142D01*
X144888009Y-96369142D02*
X144935628Y-96464380D01*
X144935628Y-96464380D02*
X144935628Y-96845332D01*
X145126104Y-95892951D02*
X145126104Y-95416761D01*
X145411819Y-95988189D02*
X144411819Y-95654856D01*
X144411819Y-95654856D02*
X145411819Y-95321523D01*
X145411819Y-94988189D02*
X144411819Y-94988189D01*
X144411819Y-94988189D02*
X145126104Y-94654856D01*
X145126104Y-94654856D02*
X144411819Y-94321523D01*
X144411819Y-94321523D02*
X145411819Y-94321523D01*
D11*
X139389075Y-78256826D02*
X139389075Y-77385969D01*
X139389075Y-77821398D02*
X140913075Y-77821398D01*
X140913075Y-77821398D02*
X140695361Y-77676255D01*
X140695361Y-77676255D02*
X140550218Y-77531112D01*
X140550218Y-77531112D02*
X140477647Y-77385969D01*
D12*
%TO.C,U1*%
X138285000Y-76394000D02*
X138285000Y-112074000D01*
X138285000Y-112074000D02*
X151205000Y-112074000D01*
X143745000Y-76394000D02*
X138285000Y-76394000D01*
X151205000Y-76394000D02*
X145745000Y-76394000D01*
X151205000Y-112074000D02*
X151205000Y-76394000D01*
X145745000Y-76394000D02*
G75*
G02*
X143745000Y-76394000I-1000000J0D01*
G01*
%TO.C,SOCKET1*%
X139295000Y-81414000D02*
X139295000Y-112134000D01*
X139295000Y-112134000D02*
X157195000Y-112134000D01*
X154705000Y-81474000D02*
X149245000Y-81474000D01*
X157195000Y-81414000D02*
X139295000Y-81414000D01*
X157195000Y-112134000D02*
X157195000Y-81414000D01*
D13*
X149245000Y-81474000D02*
G75*
G02*
X147245000Y-81474000I-1000000J0D01*
G01*
%TD*%
M02*
