M48
INCH,TZ
T1C0.0315
%
G90
G05
T1
X53986Y-30600
X53986Y-31600
X53986Y-32600
X53986Y-33600
X53986Y-34600
X53986Y-35600
X53986Y-36600
X53986Y-37600
X53986Y-38600
X53986Y-39600
X53986Y-40600
X53986Y-41600
X53986Y-42600
X53986Y-43600
X55364Y-32600
X55364Y-33600
X55364Y-34600
X55364Y-35600
X55364Y-36600
X55364Y-37600
X55364Y-38600
X55364Y-39600
X55364Y-40600
X55364Y-41600
X55364Y-42600
X55364Y-43600
X59986Y-30600
X59986Y-31600
X59986Y-32600
X59986Y-33600
X59986Y-34600
X59986Y-35600
X59986Y-36600
X59986Y-37600
X59986Y-38600
X59986Y-39600
X59986Y-40600
X59986Y-41600
X59986Y-42600
X59986Y-43600
X61364Y-32600
X61364Y-33600
X61364Y-34600
X61364Y-35600
X61364Y-36600
X61364Y-37600
X61364Y-38600
X61364Y-39600
X61364Y-40600
X61364Y-41600
X61364Y-42600
X61364Y-43600
M30
