%TF.GenerationSoftware,KiCad,Pcbnew,8.0.2*%
%TF.CreationDate,2024-05-26T11:04:38+01:00*%
%TF.ProjectId,FM1608-3458A-AdaptorV1.0,464d3136-3038-42d3-9334-3538412d4164,rev?*%
%TF.SameCoordinates,Original*%
%TF.FileFunction,Soldermask,Top*%
%TF.FilePolarity,Negative*%
%FSLAX46Y46*%
G04 Gerber Fmt 4.6, Leading zero omitted, Abs format (unit mm)*
G04 Created by KiCad (PCBNEW 8.0.2) date 2024-05-26 11:04:38*
%MOMM*%
%LPD*%
G01*
G04 APERTURE LIST*
%ADD10R,1.600000X1.600000*%
%ADD11O,1.600000X1.600000*%
G04 APERTURE END LIST*
D10*
%TO.C,U1*%
X137125000Y-77724000D03*
D11*
X137125000Y-80264000D03*
X137125000Y-82804000D03*
X137125000Y-85344000D03*
X137125000Y-87884000D03*
X137125000Y-90424000D03*
X137125000Y-92964000D03*
X137125000Y-95504000D03*
X137125000Y-98044000D03*
X137125000Y-100584000D03*
X137125000Y-103124000D03*
X137125000Y-105664000D03*
X137125000Y-108204000D03*
X137125000Y-110744000D03*
X152365000Y-110744000D03*
X152365000Y-108204000D03*
X152365000Y-105664000D03*
X152365000Y-103124000D03*
X152365000Y-100584000D03*
X152365000Y-98044000D03*
X152365000Y-95504000D03*
X152365000Y-92964000D03*
X152365000Y-90424000D03*
X152365000Y-87884000D03*
X152365000Y-85344000D03*
X152365000Y-82804000D03*
X152365000Y-80264000D03*
X152365000Y-77724000D03*
%TD*%
D10*
%TO.C,SOCKET1*%
X140625000Y-82804000D03*
D11*
X140625000Y-85344000D03*
X140625000Y-87884000D03*
X140625000Y-90424000D03*
X140625000Y-92964000D03*
X140625000Y-95504000D03*
X140625000Y-98044000D03*
X140625000Y-100584000D03*
X140625000Y-103124000D03*
X140625000Y-105664000D03*
X140625000Y-108204000D03*
X140625000Y-110744000D03*
X155865000Y-110744000D03*
X155865000Y-108204000D03*
X155865000Y-105664000D03*
X155865000Y-103124000D03*
X155865000Y-100584000D03*
X155865000Y-98044000D03*
X155865000Y-95504000D03*
X155865000Y-92964000D03*
X155865000Y-90424000D03*
X155865000Y-87884000D03*
X155865000Y-85344000D03*
X155865000Y-82804000D03*
%TD*%
M02*
