%TF.GenerationSoftware,KiCad,Pcbnew,8.0.2*%
%TF.CreationDate,2024-05-26T11:04:38+01:00*%
%TF.ProjectId,FM1608-3458A-AdaptorV1.0,464d3136-3038-42d3-9334-3538412d4164,rev?*%
%TF.SameCoordinates,Original*%
%TF.FileFunction,Copper,L1,Top*%
%TF.FilePolarity,Positive*%
%FSLAX46Y46*%
G04 Gerber Fmt 4.6, Leading zero omitted, Abs format (unit mm)*
G04 Created by KiCad (PCBNEW 8.0.2) date 2024-05-26 11:04:38*
%MOMM*%
%LPD*%
G01*
G04 APERTURE LIST*
%TA.AperFunction,ComponentPad*%
%ADD10R,1.600000X1.600000*%
%TD*%
%TA.AperFunction,ComponentPad*%
%ADD11O,1.600000X1.600000*%
%TD*%
%TA.AperFunction,Conductor*%
%ADD12C,0.250000*%
%TD*%
%TA.AperFunction,Conductor*%
%ADD13C,0.254000*%
%TD*%
%TA.AperFunction,Conductor*%
%ADD14C,0.762000*%
%TD*%
%TA.AperFunction,Conductor*%
%ADD15C,1.016000*%
%TD*%
G04 APERTURE END LIST*
D10*
%TO.P,U1,1,NC*%
%TO.N,Net-(SOCKET1-GND)*%
X137125000Y-77724000D03*
D11*
%TO.P,U1,2,A12*%
X137125000Y-80264000D03*
%TO.P,U1,3,A7*%
%TO.N,Net-(SOCKET1-A7)*%
X137125000Y-82804000D03*
%TO.P,U1,4,A6*%
%TO.N,Net-(SOCKET1-A6)*%
X137125000Y-85344000D03*
%TO.P,U1,5,A5*%
%TO.N,Net-(SOCKET1-A5)*%
X137125000Y-87884000D03*
%TO.P,U1,6,A4*%
%TO.N,Net-(SOCKET1-A4)*%
X137125000Y-90424000D03*
%TO.P,U1,7,A3*%
%TO.N,Net-(SOCKET1-A3)*%
X137125000Y-92964000D03*
%TO.P,U1,8,A2*%
%TO.N,Net-(SOCKET1-A2)*%
X137125000Y-95504000D03*
%TO.P,U1,9,A1*%
%TO.N,Net-(SOCKET1-A1)*%
X137125000Y-98044000D03*
%TO.P,U1,10,A0*%
%TO.N,Net-(SOCKET1-A0)*%
X137125000Y-100584000D03*
%TO.P,U1,11,DQ0*%
%TO.N,Net-(SOCKET1-D0)*%
X137125000Y-103124000D03*
%TO.P,U1,12,DQ1*%
%TO.N,Net-(SOCKET1-D1)*%
X137125000Y-105664000D03*
%TO.P,U1,13,DQ2*%
%TO.N,Net-(SOCKET1-D2)*%
X137125000Y-108204000D03*
%TO.P,U1,14,VSS*%
%TO.N,Net-(SOCKET1-GND)*%
X137125000Y-110744000D03*
%TO.P,U1,15,DQ3*%
%TO.N,Net-(SOCKET1-D3)*%
X152365000Y-110744000D03*
%TO.P,U1,16,DQ4*%
%TO.N,Net-(SOCKET1-D4)*%
X152365000Y-108204000D03*
%TO.P,U1,17,DQ5*%
%TO.N,Net-(SOCKET1-D5)*%
X152365000Y-105664000D03*
%TO.P,U1,18,DQ6*%
%TO.N,Net-(SOCKET1-D6)*%
X152365000Y-103124000D03*
%TO.P,U1,19,DQ7*%
%TO.N,Net-(SOCKET1-D7)*%
X152365000Y-100584000D03*
%TO.P,U1,20,~{CE}*%
%TO.N,Net-(SOCKET1-~{CE})*%
X152365000Y-98044000D03*
%TO.P,U1,21,A10*%
%TO.N,Net-(SOCKET1-A10)*%
X152365000Y-95504000D03*
%TO.P,U1,22,~{OE}*%
%TO.N,Net-(SOCKET1-~{OE})*%
X152365000Y-92964000D03*
%TO.P,U1,23,A11*%
%TO.N,Net-(SOCKET1-GND)*%
X152365000Y-90424000D03*
%TO.P,U1,24,A9*%
%TO.N,Net-(SOCKET1-A9)*%
X152365000Y-87884000D03*
%TO.P,U1,25,A8*%
%TO.N,Net-(SOCKET1-A8)*%
X152365000Y-85344000D03*
%TO.P,U1,26,NC*%
%TO.N,Net-(SOCKET1-VCC)*%
X152365000Y-82804000D03*
%TO.P,U1,27,~{WE}*%
%TO.N,Net-(SOCKET1-~{WE})*%
X152365000Y-80264000D03*
%TO.P,U1,28,VDD*%
%TO.N,Net-(SOCKET1-VCC)*%
X152365000Y-77724000D03*
%TD*%
D10*
%TO.P,SOCKET1,1,A7*%
%TO.N,Net-(SOCKET1-A7)*%
X140625000Y-82804000D03*
D11*
%TO.P,SOCKET1,2,A6*%
%TO.N,Net-(SOCKET1-A6)*%
X140625000Y-85344000D03*
%TO.P,SOCKET1,3,A5*%
%TO.N,Net-(SOCKET1-A5)*%
X140625000Y-87884000D03*
%TO.P,SOCKET1,4,A4*%
%TO.N,Net-(SOCKET1-A4)*%
X140625000Y-90424000D03*
%TO.P,SOCKET1,5,A3*%
%TO.N,Net-(SOCKET1-A3)*%
X140625000Y-92964000D03*
%TO.P,SOCKET1,6,A2*%
%TO.N,Net-(SOCKET1-A2)*%
X140625000Y-95504000D03*
%TO.P,SOCKET1,7,A1*%
%TO.N,Net-(SOCKET1-A1)*%
X140625000Y-98044000D03*
%TO.P,SOCKET1,8,A0*%
%TO.N,Net-(SOCKET1-A0)*%
X140625000Y-100584000D03*
%TO.P,SOCKET1,9,D0*%
%TO.N,Net-(SOCKET1-D0)*%
X140625000Y-103124000D03*
%TO.P,SOCKET1,10,D1*%
%TO.N,Net-(SOCKET1-D1)*%
X140625000Y-105664000D03*
%TO.P,SOCKET1,11,D2*%
%TO.N,Net-(SOCKET1-D2)*%
X140625000Y-108204000D03*
%TO.P,SOCKET1,12,GND*%
%TO.N,Net-(SOCKET1-GND)*%
X140625000Y-110744000D03*
%TO.P,SOCKET1,13,D3*%
%TO.N,Net-(SOCKET1-D3)*%
X155865000Y-110744000D03*
%TO.P,SOCKET1,14,D4*%
%TO.N,Net-(SOCKET1-D4)*%
X155865000Y-108204000D03*
%TO.P,SOCKET1,15,D5*%
%TO.N,Net-(SOCKET1-D5)*%
X155865000Y-105664000D03*
%TO.P,SOCKET1,16,D6*%
%TO.N,Net-(SOCKET1-D6)*%
X155865000Y-103124000D03*
%TO.P,SOCKET1,17,D7*%
%TO.N,Net-(SOCKET1-D7)*%
X155865000Y-100584000D03*
%TO.P,SOCKET1,18,~{CE}*%
%TO.N,Net-(SOCKET1-~{CE})*%
X155865000Y-98044000D03*
%TO.P,SOCKET1,19,A10*%
%TO.N,Net-(SOCKET1-A10)*%
X155865000Y-95504000D03*
%TO.P,SOCKET1,20,~{OE}*%
%TO.N,Net-(SOCKET1-~{OE})*%
X155865000Y-92964000D03*
%TO.P,SOCKET1,21,~{WE}*%
%TO.N,Net-(SOCKET1-~{WE})*%
X155865000Y-90424000D03*
%TO.P,SOCKET1,22,A9*%
%TO.N,Net-(SOCKET1-A9)*%
X155865000Y-87884000D03*
%TO.P,SOCKET1,23,A8*%
%TO.N,Net-(SOCKET1-A8)*%
X155865000Y-85344000D03*
%TO.P,SOCKET1,24,VCC*%
%TO.N,Net-(SOCKET1-VCC)*%
X155865000Y-82804000D03*
%TD*%
D12*
%TO.N,Net-(SOCKET1-A7)*%
X137125000Y-82804000D02*
X140625000Y-82804000D01*
%TO.N,Net-(SOCKET1-A6)*%
X137125000Y-85344000D02*
X140625000Y-85344000D01*
%TO.N,Net-(SOCKET1-A5)*%
X137125000Y-87884000D02*
X140625000Y-87884000D01*
%TO.N,Net-(SOCKET1-A4)*%
X137125000Y-90424000D02*
X140625000Y-90424000D01*
%TO.N,Net-(SOCKET1-A3)*%
X137125000Y-92964000D02*
X140625000Y-92964000D01*
%TO.N,Net-(SOCKET1-A2)*%
X137125000Y-95504000D02*
X140625000Y-95504000D01*
%TO.N,Net-(SOCKET1-A1)*%
X137125000Y-98044000D02*
X140625000Y-98044000D01*
%TO.N,Net-(SOCKET1-A0)*%
X137125000Y-100584000D02*
X140625000Y-100584000D01*
%TO.N,Net-(SOCKET1-D0)*%
X137125000Y-103124000D02*
X140625000Y-103124000D01*
%TO.N,Net-(SOCKET1-D1)*%
X137125000Y-105664000D02*
X140625000Y-105664000D01*
%TO.N,Net-(SOCKET1-D2)*%
X137125000Y-108204000D02*
X140625000Y-108204000D01*
%TO.N,Net-(SOCKET1-GND)*%
X147574000Y-80772010D02*
X147574000Y-90424000D01*
X137125000Y-80264000D02*
X147065990Y-80264000D01*
D13*
X140625000Y-110744000D02*
X147066000Y-110744000D01*
X137125000Y-77724000D02*
X137125000Y-80264000D01*
X152365000Y-90424000D02*
X147574000Y-90424000D01*
D12*
X147574000Y-110236000D02*
X147066000Y-110744000D01*
D14*
X137125000Y-110744000D02*
X140625000Y-110744000D01*
D12*
X147065990Y-80264000D02*
X147574000Y-80772010D01*
X147574000Y-90424000D02*
X147574000Y-110236000D01*
D13*
%TO.N,Net-(SOCKET1-D3)*%
X152365000Y-110744000D02*
X155865000Y-110744000D01*
D12*
%TO.N,Net-(SOCKET1-D4)*%
X155865000Y-108204000D02*
X152365000Y-108204000D01*
%TO.N,Net-(SOCKET1-D5)*%
X155865000Y-105664000D02*
X152365000Y-105664000D01*
%TO.N,Net-(SOCKET1-D6)*%
X155865000Y-103124000D02*
X152365000Y-103124000D01*
%TO.N,Net-(SOCKET1-D7)*%
X155865000Y-100584000D02*
X152365000Y-100584000D01*
%TO.N,Net-(SOCKET1-~{CE})*%
X152365000Y-98044000D02*
X155865000Y-98044000D01*
%TO.N,Net-(SOCKET1-A10)*%
X155865000Y-95504000D02*
X152365000Y-95504000D01*
%TO.N,Net-(SOCKET1-~{OE})*%
X155865000Y-92964000D02*
X152365000Y-92964000D01*
%TO.N,Net-(SOCKET1-A9)*%
X155865000Y-87884000D02*
X152365000Y-87884000D01*
%TO.N,Net-(SOCKET1-A8)*%
X155865000Y-85344000D02*
X152365000Y-85344000D01*
D15*
%TO.N,Net-(SOCKET1-VCC)*%
X155865000Y-82804000D02*
X152365000Y-82804000D01*
X151384000Y-77724000D02*
X152365000Y-77724000D01*
X151384000Y-82804000D02*
X150622000Y-82042000D01*
X152365000Y-82804000D02*
X151384000Y-82804000D01*
X150622000Y-78486000D02*
X151384000Y-77724000D01*
X150622000Y-82042000D02*
X150622000Y-78486000D01*
%TD*%
M02*
