%TF.GenerationSoftware,KiCad,Pcbnew,8.0.2*%
%TF.CreationDate,2024-05-26T11:00:14+01:00*%
%TF.ProjectId,FM16W08-3458A-Adaptor-to-AdaptorV1.0,464d3136-5730-4382-9d33-343538412d41,rev?*%
%TF.SameCoordinates,Original*%
%TF.FileFunction,Soldermask,Bot*%
%TF.FilePolarity,Negative*%
%FSLAX46Y46*%
G04 Gerber Fmt 4.6, Leading zero omitted, Abs format (unit mm)*
G04 Created by KiCad (PCBNEW 8.0.2) date 2024-05-26 11:00:14*
%MOMM*%
%LPD*%
G01*
G04 APERTURE LIST*
%ADD10R,1.600000X1.600000*%
%ADD11O,1.600000X1.600000*%
G04 APERTURE END LIST*
D10*
%TO.C,SOCKET2*%
X115062000Y-77597000D03*
D11*
X115062000Y-80137000D03*
X115062000Y-82677000D03*
X115062000Y-85217000D03*
X115062000Y-87757000D03*
X115062000Y-90297000D03*
X115062000Y-92837000D03*
X115062000Y-95377000D03*
X115062000Y-97917000D03*
X115062000Y-100457000D03*
X115062000Y-102997000D03*
X115062000Y-105537000D03*
X115062000Y-108077000D03*
X115062000Y-110617000D03*
X130302000Y-110617000D03*
X130302000Y-108077000D03*
X130302000Y-105537000D03*
X130302000Y-102997000D03*
X130302000Y-100457000D03*
X130302000Y-97917000D03*
X130302000Y-95377000D03*
X130302000Y-92837000D03*
X130302000Y-90297000D03*
X130302000Y-87757000D03*
X130302000Y-85217000D03*
X130302000Y-82677000D03*
X130302000Y-80137000D03*
X130302000Y-77597000D03*
%TD*%
D10*
%TO.C,SOCKET1*%
X109215000Y-82672000D03*
D11*
X109215000Y-85212000D03*
X109215000Y-87752000D03*
X109215000Y-90292000D03*
X109215000Y-92832000D03*
X109215000Y-95372000D03*
X109215000Y-97912000D03*
X109215000Y-100452000D03*
X109215000Y-102992000D03*
X109215000Y-105532000D03*
X109215000Y-108072000D03*
X109215000Y-110612000D03*
X124455000Y-110612000D03*
X124455000Y-108072000D03*
X124455000Y-105532000D03*
X124455000Y-102992000D03*
X124455000Y-100452000D03*
X124455000Y-97912000D03*
X124455000Y-95372000D03*
X124455000Y-92832000D03*
X124455000Y-90292000D03*
X124455000Y-87752000D03*
X124455000Y-85212000D03*
X124455000Y-82672000D03*
%TD*%
M02*
