%TF.GenerationSoftware,KiCad,Pcbnew,8.0.2*%
%TF.CreationDate,2024-05-26T11:00:14+01:00*%
%TF.ProjectId,FM16W08-3458A-Adaptor-to-AdaptorV1.0,464d3136-5730-4382-9d33-343538412d41,rev?*%
%TF.SameCoordinates,Original*%
%TF.FileFunction,Copper,L2,Bot*%
%TF.FilePolarity,Positive*%
%FSLAX46Y46*%
G04 Gerber Fmt 4.6, Leading zero omitted, Abs format (unit mm)*
G04 Created by KiCad (PCBNEW 8.0.2) date 2024-05-26 11:00:14*
%MOMM*%
%LPD*%
G01*
G04 APERTURE LIST*
%TA.AperFunction,ComponentPad*%
%ADD10R,1.600000X1.600000*%
%TD*%
%TA.AperFunction,ComponentPad*%
%ADD11O,1.600000X1.600000*%
%TD*%
%TA.AperFunction,Conductor*%
%ADD12C,0.250000*%
%TD*%
%TA.AperFunction,Conductor*%
%ADD13C,0.762000*%
%TD*%
G04 APERTURE END LIST*
D10*
%TO.P,SOCKET2,1,NC*%
%TO.N,unconnected-(SOCKET2-NC-Pad1)*%
X115062000Y-77597000D03*
D11*
%TO.P,SOCKET2,2,A12*%
%TO.N,Net-(SOCKET1-GND)*%
X115062000Y-80137000D03*
%TO.P,SOCKET2,3,A7*%
%TO.N,Net-(SOCKET1-A7)*%
X115062000Y-82677000D03*
%TO.P,SOCKET2,4,A6*%
%TO.N,Net-(SOCKET1-A6)*%
X115062000Y-85217000D03*
%TO.P,SOCKET2,5,A5*%
%TO.N,Net-(SOCKET1-A5)*%
X115062000Y-87757000D03*
%TO.P,SOCKET2,6,A4*%
%TO.N,Net-(SOCKET1-A4)*%
X115062000Y-90297000D03*
%TO.P,SOCKET2,7,A3*%
%TO.N,Net-(SOCKET1-A3)*%
X115062000Y-92837000D03*
%TO.P,SOCKET2,8,A2*%
%TO.N,Net-(SOCKET1-A2)*%
X115062000Y-95377000D03*
%TO.P,SOCKET2,9,A1*%
%TO.N,Net-(SOCKET1-A1)*%
X115062000Y-97917000D03*
%TO.P,SOCKET2,10,A0*%
%TO.N,Net-(SOCKET1-A0)*%
X115062000Y-100457000D03*
%TO.P,SOCKET2,11,D0*%
%TO.N,Net-(SOCKET1-D0)*%
X115062000Y-102997000D03*
%TO.P,SOCKET2,12,D1*%
%TO.N,Net-(SOCKET1-D1)*%
X115062000Y-105537000D03*
%TO.P,SOCKET2,13,D2*%
%TO.N,Net-(SOCKET1-D2)*%
X115062000Y-108077000D03*
%TO.P,SOCKET2,14,GND*%
%TO.N,Net-(SOCKET1-GND)*%
X115062000Y-110617000D03*
%TO.P,SOCKET2,15,D3*%
%TO.N,Net-(SOCKET1-D3)*%
X130302000Y-110617000D03*
%TO.P,SOCKET2,16,D4*%
%TO.N,Net-(SOCKET1-D4)*%
X130302000Y-108077000D03*
%TO.P,SOCKET2,17,D5*%
%TO.N,Net-(SOCKET1-D5)*%
X130302000Y-105537000D03*
%TO.P,SOCKET2,18,D6*%
%TO.N,Net-(SOCKET1-D6)*%
X130302000Y-102997000D03*
%TO.P,SOCKET2,19,D7*%
%TO.N,Net-(SOCKET1-D7)*%
X130302000Y-100457000D03*
%TO.P,SOCKET2,20,~{CE}*%
%TO.N,Net-(SOCKET1-~{CE})*%
X130302000Y-97917000D03*
%TO.P,SOCKET2,21,A10*%
%TO.N,Net-(SOCKET1-A10)*%
X130302000Y-95377000D03*
%TO.P,SOCKET2,22,~{OE}*%
%TO.N,Net-(SOCKET1-~{OE})*%
X130302000Y-92837000D03*
%TO.P,SOCKET2,23,A11*%
%TO.N,Net-(SOCKET1-GND)*%
X130302000Y-90297000D03*
%TO.P,SOCKET2,24,A9*%
%TO.N,Net-(SOCKET1-A9)*%
X130302000Y-87757000D03*
%TO.P,SOCKET2,25,A8*%
%TO.N,Net-(SOCKET1-A8)*%
X130302000Y-85217000D03*
%TO.P,SOCKET2,26,NC*%
%TO.N,unconnected-(SOCKET2-NC-Pad26)*%
X130302000Y-82677000D03*
%TO.P,SOCKET2,27,WE*%
%TO.N,Net-(SOCKET1-~{WE})*%
X130302000Y-80137000D03*
%TO.P,SOCKET2,28,VCC*%
%TO.N,Net-(SOCKET1-VCC)*%
X130302000Y-77597000D03*
%TD*%
D10*
%TO.P,SOCKET1,1,A7*%
%TO.N,Net-(SOCKET1-A7)*%
X109215000Y-82672000D03*
D11*
%TO.P,SOCKET1,2,A6*%
%TO.N,Net-(SOCKET1-A6)*%
X109215000Y-85212000D03*
%TO.P,SOCKET1,3,A5*%
%TO.N,Net-(SOCKET1-A5)*%
X109215000Y-87752000D03*
%TO.P,SOCKET1,4,A4*%
%TO.N,Net-(SOCKET1-A4)*%
X109215000Y-90292000D03*
%TO.P,SOCKET1,5,A3*%
%TO.N,Net-(SOCKET1-A3)*%
X109215000Y-92832000D03*
%TO.P,SOCKET1,6,A2*%
%TO.N,Net-(SOCKET1-A2)*%
X109215000Y-95372000D03*
%TO.P,SOCKET1,7,A1*%
%TO.N,Net-(SOCKET1-A1)*%
X109215000Y-97912000D03*
%TO.P,SOCKET1,8,A0*%
%TO.N,Net-(SOCKET1-A0)*%
X109215000Y-100452000D03*
%TO.P,SOCKET1,9,D0*%
%TO.N,Net-(SOCKET1-D0)*%
X109215000Y-102992000D03*
%TO.P,SOCKET1,10,D1*%
%TO.N,Net-(SOCKET1-D1)*%
X109215000Y-105532000D03*
%TO.P,SOCKET1,11,D2*%
%TO.N,Net-(SOCKET1-D2)*%
X109215000Y-108072000D03*
%TO.P,SOCKET1,12,GND*%
%TO.N,Net-(SOCKET1-GND)*%
X109215000Y-110612000D03*
%TO.P,SOCKET1,13,D3*%
%TO.N,Net-(SOCKET1-D3)*%
X124455000Y-110612000D03*
%TO.P,SOCKET1,14,D4*%
%TO.N,Net-(SOCKET1-D4)*%
X124455000Y-108072000D03*
%TO.P,SOCKET1,15,D5*%
%TO.N,Net-(SOCKET1-D5)*%
X124455000Y-105532000D03*
%TO.P,SOCKET1,16,D6*%
%TO.N,Net-(SOCKET1-D6)*%
X124455000Y-102992000D03*
%TO.P,SOCKET1,17,D7*%
%TO.N,Net-(SOCKET1-D7)*%
X124455000Y-100452000D03*
%TO.P,SOCKET1,18,~{CE}*%
%TO.N,Net-(SOCKET1-~{CE})*%
X124455000Y-97912000D03*
%TO.P,SOCKET1,19,A10*%
%TO.N,Net-(SOCKET1-A10)*%
X124455000Y-95372000D03*
%TO.P,SOCKET1,20,~{OE}*%
%TO.N,Net-(SOCKET1-~{OE})*%
X124455000Y-92832000D03*
%TO.P,SOCKET1,21,~{WE}*%
%TO.N,Net-(SOCKET1-~{WE})*%
X124455000Y-90292000D03*
%TO.P,SOCKET1,22,A9*%
%TO.N,Net-(SOCKET1-A9)*%
X124455000Y-87752000D03*
%TO.P,SOCKET1,23,A8*%
%TO.N,Net-(SOCKET1-A8)*%
X124455000Y-85212000D03*
%TO.P,SOCKET1,24,VCC*%
%TO.N,Net-(SOCKET1-VCC)*%
X124455000Y-82672000D03*
%TD*%
D12*
%TO.N,Net-(SOCKET1-A7)*%
X109215000Y-82672000D02*
X115057000Y-82672000D01*
X115057000Y-82672000D02*
X115062000Y-82677000D01*
%TO.N,Net-(SOCKET1-A6)*%
X115057000Y-85212000D02*
X115062000Y-85217000D01*
X109215000Y-85212000D02*
X115057000Y-85212000D01*
%TO.N,Net-(SOCKET1-A5)*%
X115057000Y-87752000D02*
X115062000Y-87757000D01*
X109215000Y-87752000D02*
X115057000Y-87752000D01*
%TO.N,Net-(SOCKET1-A4)*%
X109215000Y-90292000D02*
X115057000Y-90292000D01*
X115057000Y-90292000D02*
X115062000Y-90297000D01*
%TO.N,Net-(SOCKET1-A3)*%
X115057000Y-92832000D02*
X115062000Y-92837000D01*
X109215000Y-92832000D02*
X115057000Y-92832000D01*
%TO.N,Net-(SOCKET1-A2)*%
X109215000Y-95372000D02*
X115057000Y-95372000D01*
X115057000Y-95372000D02*
X115062000Y-95377000D01*
%TO.N,Net-(SOCKET1-A1)*%
X109215000Y-97912000D02*
X115057000Y-97912000D01*
X115057000Y-97912000D02*
X115062000Y-97917000D01*
%TO.N,Net-(SOCKET1-A0)*%
X109215000Y-100452000D02*
X115057000Y-100452000D01*
X115057000Y-100452000D02*
X115062000Y-100457000D01*
%TO.N,Net-(SOCKET1-D0)*%
X115057000Y-102992000D02*
X115062000Y-102997000D01*
X109215000Y-102992000D02*
X115057000Y-102992000D01*
%TO.N,Net-(SOCKET1-D1)*%
X109215000Y-105532000D02*
X115057000Y-105532000D01*
X115057000Y-105532000D02*
X115062000Y-105537000D01*
%TO.N,Net-(SOCKET1-D2)*%
X115057000Y-108072000D02*
X115062000Y-108077000D01*
X109215000Y-108072000D02*
X115057000Y-108072000D01*
%TO.N,Net-(SOCKET1-GND)*%
X120396000Y-91567000D02*
X120396000Y-82423000D01*
X118618000Y-110617000D02*
X120396000Y-108839000D01*
X115057000Y-110612000D02*
X115062000Y-110617000D01*
D13*
X109215000Y-110612000D02*
X115057000Y-110612000D01*
D12*
X120396000Y-82423000D02*
X118110000Y-80137000D01*
X120396000Y-91567000D02*
X129032000Y-91567000D01*
X115062000Y-110617000D02*
X118618000Y-110617000D01*
X120396000Y-108839000D02*
X120396000Y-91567000D01*
X118110000Y-80137000D02*
X115062000Y-80137000D01*
X129032000Y-91567000D02*
X130302000Y-90297000D01*
%TO.N,Net-(SOCKET1-D3)*%
X130297000Y-110612000D02*
X130302000Y-110617000D01*
X124455000Y-110612000D02*
X130297000Y-110612000D01*
%TO.N,Net-(SOCKET1-D4)*%
X124455000Y-108072000D02*
X130297000Y-108072000D01*
X130297000Y-108072000D02*
X130302000Y-108077000D01*
%TO.N,Net-(SOCKET1-D5)*%
X124455000Y-105532000D02*
X130297000Y-105532000D01*
X130297000Y-105532000D02*
X130302000Y-105537000D01*
%TO.N,Net-(SOCKET1-D6)*%
X130297000Y-102992000D02*
X130302000Y-102997000D01*
X124455000Y-102992000D02*
X130297000Y-102992000D01*
%TO.N,Net-(SOCKET1-D7)*%
X124455000Y-100452000D02*
X130297000Y-100452000D01*
X130297000Y-100452000D02*
X130302000Y-100457000D01*
%TO.N,Net-(SOCKET1-~{CE})*%
X130297000Y-97912000D02*
X130302000Y-97917000D01*
X124455000Y-97912000D02*
X130297000Y-97912000D01*
%TO.N,Net-(SOCKET1-A10)*%
X130297000Y-95372000D02*
X130302000Y-95377000D01*
X124455000Y-95372000D02*
X130297000Y-95372000D01*
%TO.N,Net-(SOCKET1-~{OE})*%
X130297000Y-92832000D02*
X130302000Y-92837000D01*
X124455000Y-92832000D02*
X130297000Y-92832000D01*
%TO.N,Net-(SOCKET1-~{WE})*%
X122174000Y-89535000D02*
X122174000Y-84963000D01*
X123190000Y-83947000D02*
X126492000Y-83947000D01*
X124455000Y-90292000D02*
X122931000Y-90292000D01*
X126492000Y-83947000D02*
X130302000Y-80137000D01*
X122931000Y-90292000D02*
X122174000Y-89535000D01*
X122174000Y-84963000D02*
X123190000Y-83947000D01*
%TO.N,Net-(SOCKET1-A9)*%
X124455000Y-87752000D02*
X130297000Y-87752000D01*
X130297000Y-87752000D02*
X130302000Y-87757000D01*
D13*
%TO.N,Net-(SOCKET1-VCC)*%
X124455000Y-82672000D02*
X124455000Y-81539000D01*
X128397000Y-77597000D02*
X130302000Y-77597000D01*
X124455000Y-81539000D02*
X128397000Y-77597000D01*
D12*
%TO.N,Net-(SOCKET1-A8)*%
X124455000Y-85212000D02*
X130297000Y-85212000D01*
X130297000Y-85212000D02*
X130302000Y-85217000D01*
%TD*%
M02*
