M48
INCH,TZ
T1C0.0315
%
G90
G05
T1
X42998Y-32548
X42998Y-33548
X42998Y-34548
X42998Y-35548
X42998Y-36548
X42998Y-37548
X42998Y-38548
X42998Y-39548
X42998Y-40548
X42998Y-41548
X42998Y-42548
X42998Y-43548
X45300Y-30550
X45300Y-31550
X45300Y-32550
X45300Y-33550
X45300Y-34550
X45300Y-35550
X45300Y-36550
X45300Y-37550
X45300Y-38550
X45300Y-39550
X45300Y-40550
X45300Y-41550
X45300Y-42550
X45300Y-43550
X48998Y-32548
X48998Y-33548
X48998Y-34548
X48998Y-35548
X48998Y-36548
X48998Y-37548
X48998Y-38548
X48998Y-39548
X48998Y-40548
X48998Y-41548
X48998Y-42548
X48998Y-43548
X51300Y-30550
X51300Y-31550
X51300Y-32550
X51300Y-33550
X51300Y-34550
X51300Y-35550
X51300Y-36550
X51300Y-37550
X51300Y-38550
X51300Y-39550
X51300Y-40550
X51300Y-41550
X51300Y-42550
X51300Y-43550
M30
